<svg xmlns="http://www.w3.org/2000/svg" viewBox="0 0 128 128" width="128" height="128">
  <rect x="4" y="4" width="120" height="120" rx="28" fill="#F26B3A"/>
  <path fill="#fff" d="M61 54C52 48 39 46 24 47V100C39 99 52 101 61 107Z"/>
  <path fill="#fff" d="M67 54C76 48 89 46 104 47V100C89 99 76 101 67 107Z"/>
  <path fill="#fff" d="M64 11 C66.7 23.3 66.7 23.3 79 26 C66.7 28.7 66.7 28.7 64 41 C61.3 28.7 61.3 28.7 49 26 C61.3 23.3 61.3 23.3 64 11Z"/>
  <circle cx="100" cy="100" r="24" fill="#16A34A" stroke="#fff" stroke-width="6"/>
  <path d="M89 100.5l7.5 7.5 14-14.5" fill="none" stroke="#fff" stroke-width="6.5" stroke-linecap="round" stroke-linejoin="round"/>
</svg>
